#!OML:ASF Y:\EmotionMaleHayes\Project 1\Capture day 1\Session 1\Male1.ASF
:FULLY-SPECIFIED
:DEGREES
1125
root 11.4373 16.3649 6.36445 532.511 199.71 178.999
lowerback 13.151 3.16312 1.36936
upperback 5.77239 4.2945 0.16166
thorax -1.20776 2.14267 -1.19213
lowerneck -20.6712 -5.61133 -0.930586
upperneck 28.6376 -11.1631 9.64383
head 13.9044 -3.65619 1.94982
rclavicle -3.62968e-014 -1.10822e-014
rhumerus -32.5965 21.6308 -82.9253
rradius 81.4652
rwrist -20.4789
rhand -20.1747 -35.8272
rfingers 7.12502
rthumb 6.17112 -65.7173
lclavicle -3.62968e-014 -1.10822e-014
lhumerus -59.3047 -13.2547 87.5137
lradius 34.5679
lwrist 11.9827
lhand -23.6921 -17.6092
lfingers 7.12502
lthumb 2.77469 12.3525
rfemur 1.63605 13.5912 27.2653
rtibia 42.8478
rfoot -27.4185 5.40993
rtoes 1.63716
lfemur -15.8647 -7.02168 1.30829
ltibia 17.3176
lfoot -13.2799 9.7756
ltoes -17.2957
1126
root 11.4459 16.2958 6.61265 532.627 201.129 179.215
lowerback 12.8379 3.28132 1.2322
upperback 5.7897 4.42871 0.186899
thorax -1.03057 2.20809 -1.08722
lowerneck -20.3877 -5.86899 -1.69216
upperneck 28.1927 -11.4669 10.3974
head 13.7891 -3.80323 2.31607
rclavicle -3.22198e-014 -6.81769e-015
rhumerus -31.6374 22.4387 -82.138
rradius 83.6276
rwrist -20.8603
rhand -20.1971 -36.1984
rfingers 7.12502
rthumb 6.1495 -66.0891
lclavicle -3.22198e-014 -6.81769e-015
lhumerus -60.2008 -12.8569 87.5842
lradius 34.4041
lwrist 11.4424
lhand -23.1223 -16.8509
lfingers 7.12502
lthumb 3.32499 13.1029
rfemur 1.59717 13.7457 26.9992
rtibia 44.3446
rfoot -27.7043 5.23749
rtoes 1.83256
lfemur -15.6241 -8.20973 2.27484
ltibia 15.5622
lfoot -13.4861 8.34505
ltoes -13.7843
1127
root 11.4529 16.2256 6.85599 533.05 202.691 178.688
lowerback 12.625 3.39712 1.74242
upperback 5.73978 4.64016 0.426406
thorax -0.941569 2.31863 -1.13834
lowerneck -20.6846 -5.7898 -1.50102
upperneck 28.6228 -11.2897 9.80618
head 13.9579 -3.75636 2.08407
rclavicle -1.65426e-014 1.15792e-014
rhumerus -30.8213 22.9809 -81.3878
rradius 85.6852
rwrist -21.4188
rhand -20.1641 -36.4684
rfingers 7.12502
rthumb 6.18136 -66.3582
lclavicle -1.65426e-014 1.15792e-014
lhumerus -60.5574 -12.0557 87.2497
lradius 33.7235
lwrist 10.0341
lhand -22.3838 -16.7376
lfingers 7.12502
lthumb 4.03815 13.2039
rfemur 1.49634 13.9992 27.5841
rtibia 45.9066
rfoot -27.8954 4.63794
rtoes 1.08181
lfemur -15.5316 -7.97883 3.88898
ltibia 14.9702
lfoot -13.1327 6.86991
ltoes -13.7786
1128
root 11.4672 16.1392 7.12615 532.523 203.964 180.006
lowerback 12.4182 3.50979 0.733614
upperback 5.76895 4.6648 0.122336
thorax -0.855534 2.31785 -0.880842
lowerneck -19.9888 -5.89029 -2.31396
upperneck 27.8564 -11.4194 10.9257
head 13.6408 -3.81643 2.63935
rclavicle -2.67117e-015 -7.45443e-016
rhumerus -30.2533 23.5384 -81.0146
rradius 87.6462
rwrist -22.0726
rhand -20.2127 -36.3884
rfingers 7.12502
rthumb 6.13452 -66.2796
lclavicle -2.67117e-015 -7.45443e-016
lhumerus -61.0707 -11.6436 87.3055
lradius 33.2933
lwrist 9.5856
lhand -22.3657 -16.3674
lfingers 7.12502
lthumb 4.05559 13.5737
rfemur 2.07498 14.1319 26.063
rtibia 46.9269
rfoot -27.9877 4.49914
rtoes 1.37521
lfemur -14.8982 -8.51964 3.05011
ltibia 14.3412
lfoot -12.7524 6.12869
ltoes -9.47007
1129
root 11.4842 16.0522 7.38879 532.338 205.287 180.671
lowerback 12.2452 3.49303 0.357409
upperback 5.69771 4.5965 -0.0287666
thorax -0.855431 2.27824 -0.810964
lowerneck -19.755 -5.83058 -2.06419
upperneck 28.082 -11.2895 10.4268
head 13.6147 -3.80304 2.43318
rclavicle 3.21286e-014 -7.95139e-016
rhumerus -29.8828 24.0469 -80.8455
rradius 89.4448
rwrist -22.7111
rhand -20.233 -36.0772
rfingers 7.12502
rthumb 6.11487 -65.969
lclavicle 3.21286e-014 -7.95139e-016
lhumerus -61.8084 -11.7208 88.0423
lradius 33.3735
lwrist 10.1597
lhand -22.9188 -15.6563
lfingers 7.12502
lthumb 3.52147 14.2944
rfemur 2.32107 14.3275 25.2033
rtibia 48.2164
rfoot -27.9507 4.56864
rtoes 1.86675
lfemur -14.4431 -8.25981 2.66479
ltibia 14.7302
lfoot -12.0152 6.19108
ltoes -13.4377
1130
root 11.5057 15.9628 7.64936 532.186 206.554 181.206
lowerback 12.1208 3.46625 0.209327
upperback 5.64044 4.54087 -0.157738
thorax -0.850014 2.24867 -0.849014
lowerneck -19.5687 -6.05939 -1.84772
upperneck 28.0571 -11.5795 10.0595
head 13.5416 -3.96673 2.20039
rclavicle -5.61939e-014 1.54058e-014
rhumerus -29.6774 24.0293 -80.8386
rradius 91.0785
rwrist -23.0229
rhand -20.1455 -36.0249
rfingers 7.12502
rthumb 6.19938 -65.9142
lclavicle -5.61939e-014 1.54058e-014
lhumerus -61.4118 -10.6294 87.5122
lradius 32.2885
lwrist 9.07955
lhand -23.1201 -16.2918
lfingers 7.12502
lthumb 3.32713 13.6619
rfemur 2.16398 14.3622 24.3214
rtibia 49.9965
rfoot -27.7009 4.68854
rtoes 0.474139
lfemur -13.8744 -8.09367 2.26789
ltibia 14.9784
lfoot -11.0147 6.66409
ltoes -18.3599
1131
root 11.5328 15.8705 7.90351 531.933 207.719 181.961
lowerback 12.025 3.41256 -0.0982367
upperback 5.62175 4.43066 -0.362956
thorax -0.826319 2.19 -0.870801
lowerneck -19.3093 -6.19149 -1.57856
upperneck 27.8815 -11.7731 9.84858
head 13.3914 -4.07232 2.03959
rclavicle -3.72721e-014 1.50082e-014
rhumerus -29.4105 23.7566 -81.1175
rradius 92.4221
rwrist -23.1836
rhand -20.1164 -36.0829
rfingers 7.12502
rthumb 6.22746 -65.9714
lclavicle -3.72721e-014 1.50082e-014
lhumerus -60.9372 -10.0254 87.2502
lradius 31.4963
lwrist 9.03063
lhand -22.7658 -17.5993
lfingers 7.12502
lthumb 3.66923 12.3489
rfemur 1.65384 14.2902 23.0762
rtibia 52.0971
rfoot -27.0894 4.80372
rtoes -1.07989
lfemur -13.4395 -6.5423 1.17434
ltibia 16.1277
lfoot -7.45505 6.48424
ltoes -30.0794
1132
root 11.5622 15.7778 8.14872 531.592 208.762 182.855
lowerback 12.0249 3.28549 -0.663728
upperback 5.60485 4.19622 -0.493725
thorax -0.877397 2.0634 -0.663123
lowerneck -18.9341 -6.247 -1.78667
upperneck 27.6984 -11.8334 10.0577
head 13.2714 -4.12083 2.15058
rclavicle 2.81529e-014 -5.56597e-015
rhumerus -29.3974 23.9991 -81.4158
rradius 93.5698
rwrist -23.4461
rhand -20.3831 -35.8139
rfingers 7.12502
rthumb 5.96997 -65.7098
lclavicle 2.81529e-014 -5.56597e-015
lhumerus -60.4445 -9.54641 87.681
lradius 31.1457
lwrist 9.1024
lhand -23.7327 -16.8507
lfingers 7.12502
lthumb 2.73548 13.1115
rfemur 1.02219 14.2048 21.6315
rtibia 54.2028
rfoot -26.0571 5.08147
rtoes -0.208448
lfemur -13.1297 -6.01212 0.28208
ltibia 18.0829
lfoot -6.21098 4.15916
ltoes -17.2014
1133
root 11.5931 15.6897 8.37916 531.165 209.634 183.816
lowerback 12.3252 3.09403 -1.24668
upperback 5.50483 3.86597 -0.667377
thorax -1.17099 1.88967 -0.49691
lowerneck -18.471 -6.31278 -2.16745
upperneck 27.5425 -11.93 10.4784
head 13.1783 -4.17919 2.36853
rclavicle -4.57205e-015 -1.98785e-016
rhumerus -30.0473 24.4495 -81.8954
rradius 94.7459
rwrist -23.8073
rhand -20.7322 -35.4691
rfingers 7.12502
rthumb 5.63287 -65.3743
lclavicle -4.57205e-015 -1.98785e-016
lhumerus -59.7014 -8.73678 87.6259
lradius 30.6899
lwrist 9.43518
lhand -24.4054 -16.9739
lfingers 7.12502
lthumb 2.08587 12.9956
rfemur 0.608549 14.6054 20.4363
rtibia 56.1236
rfoot -24.4992 5.24748
rtoes 4.01847
lfemur -13.3219 -5.15875 -0.597542
ltibia 20.2894
lfoot -5.74647 0.588795
ltoes -6.05484
1134
root 11.6174 15.6139 8.59049 530.829 210.305 184.862
lowerback 12.6632 2.84262 -1.97344
upperback 5.37292 3.43034 -0.935956
thorax -1.51439 1.66463 -0.332944
lowerneck -17.9367 -6.37726 -2.55817
upperneck 27.0938 -12.084 11.2181
head 12.9858 -4.24072 2.6969
rclavicle -3.30976e-014 -1.41137e-014
rhumerus -30.8198 24.4205 -82.9158
rradius 95.5543
rwrist -23.8956
rhand -20.9589 -35.3891
rfingers 7.12502
rthumb 5.41404 -65.2999
lclavicle -3.30976e-014 -1.41137e-014
lhumerus -58.5836 -7.77774 87.065
lradius 30.2212
lwrist 9.72917
lhand -24.9292 -17.4099
lfingers 7.12502
lthumb 1.57998 12.564
rfemur 0.397847 15.8347 19.8077
rtibia 57.8343
rfoot -22.6479 4.40763
rtoes 8.59784
lfemur -14.2636 -3.66698 -1.74022
ltibia 22.6656
lfoot -5.72392 -0.272308
ltoes -6.81822
1135
root 11.6307 15.5654 8.79012 530.579 210.901 186.216
lowerback 12.6094 2.64053 -3.22473
upperback 5.39616 3.00994 -1.18455
thorax -1.50339 1.43898 0.170037
lowerneck -17.7202 -6.44563 -2.9333
upperneck 26.4479 -12.2173 11.9713
head 12.7818 -4.28548 3.01714
rclavicle -5.23301e-014 1.13307e-014
rhumerus -31.2837 23.9987 -84.0505
rradius 95.8333
rwrist -23.6638
rhand -21.0881 -35.5501
rfingers 7.12502
rthumb 5.28929 -65.4641
lclavicle -5.23301e-014 1.13307e-014
lhumerus -56.7485 -6.67767 86.4903
lradius 29.6298
lwrist 9.67814
lhand -25.7771 -17.6428
lfingers 7.12502
lthumb 0.761039 12.3356
rfemur -1.84345 15.1728 17.56
rtibia 60.6439
rfoot -20.1624 5.02449
rtoes 11.7705
lfemur -15.5112 -2.54584 -3.19648
ltibia 25.3085
lfoot -6.26858 3.05178
ltoes -24.7798
1136
root 11.6396 15.5483 8.98219 530.481 211.626 187.612
lowerback 12.2519 2.60135 -4.2793
upperback 5.30329 2.84361 -1.53433
thorax -1.43113 1.34489 0.431852
lowerneck -16.9573 -6.63364 -3.43456
upperneck 25.7107 -12.481 12.7763
head 12.4579 -4.42541 3.3645
rclavicle 4.19436e-014 -2.70347e-014
rhumerus -32.4567 23.1118 -85.2924
rradius 96.0865
rwrist -23.5219
rhand -21.0584 -35.961
rfingers 7.12502
rthumb 5.31798 -65.8743
lclavicle 4.19436e-014 -2.70347e-014
lhumerus -54.8834 -6.16983 86.0682
lradius 29.0418
lwrist 9.46704
lhand -26.323 -18.2297
lfingers 7.12502
lthumb 0.233791 11.7499
rfemur -4.11316 15.0679 15.603
rtibia 63.1713
rfoot -17.3976 5.2357
rtoes 15.6846
lfemur -16.6604 -1.25808 -4.61248
ltibia 27.762
lfoot -6.33684 4.56451
ltoes -28.1153
1137
root 11.6402 15.5488 9.169 530.428 212.454 188.53
lowerback 12.0374 2.53185 -4.85208
upperback 5.47762 2.69566 -1.81163
thorax -1.13626 1.25622 0.496603
lowerneck -17.0237 -6.83572 -3.68943
upperneck 25.2151 -12.7791 13.2768
head 12.3701 -4.5443 3.53097
rclavicle -1.04362e-013 9.74045e-015
rhumerus -33.4598 22.2357 -86.4802
rradius 96.0907
rwrist -23.386
rhand -21.1383 -36.3618
rfingers 7.12502
rthumb 5.24086 -66.277
lclavicle -1.04362e-013 9.74045e-015
lhumerus -52.4722 -5.85344 85.6501
lradius 28.5654
lwrist 9.36603
lhand -26.8988 -18.4798
lfingers 7.12502
lthumb -0.322327 11.4997
rfemur -6.12377 15.0915 14.4882
rtibia 65.5768
rfoot -14.5503 4.66586
rtoes 18.3524
lfemur -17.1561 0.414628 -5.52017
ltibia 29.4851
lfoot -8.00788 2.20719
ltoes -24.0573
1138
root 11.6259 15.5619 9.35141 530.198 213.37 188.813
lowerback 12.3405 2.44184 -4.85856
upperback 5.80146 2.55333 -1.98415
thorax -0.946453 1.175 0.335638
lowerneck -17.4509 -6.94302 -3.60115
upperneck 24.9287 -12.97 13.4468
head 12.3768 -4.59511 3.52755
rclavicle 2.08227e-014 -2.32578e-014
rhumerus -34.5642 21.4141 -87.8508
rradius 95.6164
rwrist -23.1504
rhand -21.6416 -36.6397
rfingers 7.12502
rthumb 4.75489 -66.5663
lclavicle 2.08227e-014 -2.32578e-014
lhumerus -49.8949 -5.64323 85.1366
lradius 28.2053
lwrist 9.56572
lhand -27.7495 -18.5865
lfingers 7.12502
lthumb -1.14399 11.3902
rfemur -7.37485 15.1634 14.5369
rtibia 67.797
rfoot -12.0944 3.06663
rtoes 18.3367
lfemur -16.4503 2.16828 -5.72793
ltibia 30.1837
lfoot -8.30557 2.59531
ltoes -28.9385
